<svg width="32" height="32" viewBox="0 0 32 32" fill="none" xmlns="http://www.w3.org/2000/svg">
<path d="M0 15.3333C0 8.10513 0 4.49103 2.24551 2.24551C4.49103 0 8.10513 0 15.3333 0H16.6667C23.8949 0 27.509 0 29.7545 2.24551C32 4.49103 32 8.10513 32 15.3333V16.6667C32 23.8949 32 27.509 29.7545 29.7545C27.509 32 23.8949 32 16.6667 32H15.3333C8.10513 32 4.49103 32 2.24551 29.7545C0 27.509 0 23.8949 0 16.6667L0 15.3333Z" fill="#2787F5"/>
<path fill-rule="evenodd" clip-rule="evenodd" d="M8.66532 10H6.33145C5.66462 10 5.53125 10.3139 5.53125 10.6599C5.53125 11.2779 6.32249 14.3432 9.21538 18.3973C11.144 21.1659 13.8612 22.6667 16.3338 22.6667C17.8173 22.6667 18.0008 22.3333 18.0008 21.7592V19.6667C18.0008 19 18.1414 18.8669 18.6111 18.8669C18.9573 18.8669 19.5507 19.04 20.9354 20.3749C22.5178 21.9569 22.7787 22.6667 23.6688 22.6667H26.0026C26.6695 22.6667 27.0029 22.3333 26.8106 21.6755C26.6001 21.0199 25.8446 20.0687 24.842 18.9411C24.298 18.2984 23.4821 17.6063 23.2348 17.2601C22.8887 16.8152 22.9876 16.6174 23.2348 16.2219C23.2348 16.2219 26.0783 12.2173 26.375 10.8577C26.5234 10.3633 26.375 10 25.6692 10H23.3354C22.742 10 22.4684 10.3139 22.32 10.6599C22.32 10.6599 21.1332 13.5521 19.4519 15.4309C18.9079 15.9747 18.6606 16.1477 18.3639 16.1477C18.2155 16.1477 18.0008 15.9747 18.0008 15.4803V10.8577C18.0008 10.2644 17.8286 10 17.334 10H13.6664C13.2956 10 13.0726 10.2753 13.0726 10.5363C13.0726 11.0987 13.9132 11.2285 13.9999 12.8105V16.2467C13.9999 17 13.8638 17.1366 13.5671 17.1366C12.7759 17.1366 10.8513 14.2314 9.70985 10.9071C9.48618 10.261 9.26178 10 8.66532 10V10Z" fill="white"/>
</svg>
